<mxfile host="Electron" agent="Mozilla/5.0 (Windows NT 10.0; Win64; x64) AppleWebKit/537.36 (KHTML, like Gecko) draw.io/28.0.6 Chrome/138.0.7204.100 Electron/37.2.3 Safari/537.36" version="28.0.6">
  <diagram name="Modelo MER" id="modelo-mer">
    <mxGraphModel dx="1106" dy="669" grid="1" gridSize="10" guides="1" tooltips="1" connect="1" arrows="1" fold="1" page="1" pageScale="1" pageWidth="850" pageHeight="1100" math="0" shadow="0">
      <root>
        <mxCell id="0" />
        <mxCell id="1" parent="0" />
        <mxCell id="usuario" value="Usuário" style="shape=rectangle;whiteSpace=wrap;rounded=1;fillColor=#dae8fc;" parent="1" vertex="1">
          <mxGeometry x="30" y="80" width="160" height="120" as="geometry" />
        </mxCell>
        <mxCell id="attr1" value="id_usuario" style="ellipse;fillColor=#ffffff;" parent="1" vertex="1">
          <mxGeometry x="60" y="10" width="100" height="30" as="geometry" />
        </mxCell>
        <mxCell id="attr2" value="nome" style="ellipse;fillColor=#ffffff;" parent="1" vertex="1">
          <mxGeometry x="60" y="40" width="100" height="30" as="geometry" />
        </mxCell>
        <mxCell id="rel1" value="Realiza" style="rhombus;whiteSpace=wrap;fillColor=#ffe6cc;" parent="1" vertex="1">
          <mxGeometry x="70" y="250" width="80" height="60" as="geometry" />
        </mxCell>
        <mxCell id="treino" value="Treino" style="shape=rectangle;whiteSpace=wrap;rounded=1;fillColor=#d5e8d4;" parent="1" vertex="1">
          <mxGeometry x="30" y="360" width="160" height="100" as="geometry" />
        </mxCell>
        <mxCell id="rel2" value="Contém" style="rhombus;whiteSpace=wrap;fillColor=#fff2cc;" parent="1" vertex="1">
          <mxGeometry x="70" y="520" width="80" height="60" as="geometry" />
        </mxCell>
        <mxCell id="exercicio" value="Exercício" style="shape=rectangle;whiteSpace=wrap;rounded=1;fillColor=#f8cecc;" parent="1" vertex="1">
          <mxGeometry x="30" y="620" width="160" height="100" as="geometry" />
        </mxCell>
        <mxCell id="pagamento" value="Pagamento" style="shape=rectangle;whiteSpace=wrap;rounded=1;fillColor=#f5f5f5;" parent="1" vertex="1">
          <mxGeometry x="330" y="280" width="160" height="100" as="geometry" />
        </mxCell>
        <mxCell id="tABnrPn6lWvIY6n4PG_O-17" value="" style="edgeStyle=orthogonalEdgeStyle;rounded=0;orthogonalLoop=1;jettySize=auto;html=1;strokeColor=default;endArrow=none;endFill=0;" edge="1" parent="1" source="rel3" target="pagamento">
          <mxGeometry relative="1" as="geometry" />
        </mxCell>
        <mxCell id="rel3" value="Efetua" style="rhombus;whiteSpace=wrap;fillColor=#e6f0ff;fillStyle=hatch;" parent="1" vertex="1">
          <mxGeometry x="370" y="150" width="80" height="60" as="geometry" />
        </mxCell>
        <mxCell id="notificacao" value="Notificação" style="shape=rectangle;whiteSpace=wrap;rounded=1;fillColor=#fce5cd;" parent="1" vertex="1">
          <mxGeometry x="570" y="60" width="160" height="100" as="geometry" />
        </mxCell>
        <mxCell id="rel4" value="Recebe" style="rhombus;whiteSpace=wrap;fillColor=#d9ead3;" parent="1" vertex="1">
          <mxGeometry x="330" y="70" width="80" height="60" as="geometry" />
        </mxCell>
        <mxCell id="edge1" style="edgeStyle=orthogonalEdgeStyle;endArrow=none;endFill=0;" parent="1" source="usuario" target="rel1" edge="1">
          <mxGeometry relative="1" as="geometry" />
        </mxCell>
        <mxCell id="edge2" style="edgeStyle=orthogonalEdgeStyle;endArrow=none;endFill=0;" parent="1" source="rel1" target="treino" edge="1">
          <mxGeometry relative="1" as="geometry" />
        </mxCell>
        <mxCell id="edge3" style="edgeStyle=orthogonalEdgeStyle;endArrow=none;endFill=0;" parent="1" source="treino" target="rel2" edge="1">
          <mxGeometry relative="1" as="geometry" />
        </mxCell>
        <mxCell id="edge4" style="edgeStyle=orthogonalEdgeStyle;endArrow=none;endFill=0;" parent="1" source="rel2" target="exercicio" edge="1">
          <mxGeometry relative="1" as="geometry" />
        </mxCell>
        <mxCell id="tABnrPn6lWvIY6n4PG_O-7" value="" style="endArrow=none;html=1;rounded=0;exitX=0;exitY=0.5;exitDx=0;exitDy=0;entryX=1.006;entryY=0.558;entryDx=0;entryDy=0;entryPerimeter=0;edgeStyle=orthogonalEdgeStyle;" edge="1" parent="1" source="rel3" target="usuario">
          <mxGeometry width="50" height="50" relative="1" as="geometry">
            <mxPoint x="240" y="310" as="sourcePoint" />
            <mxPoint x="240" y="150" as="targetPoint" />
          </mxGeometry>
        </mxCell>
        <mxCell id="tABnrPn6lWvIY6n4PG_O-10" value="" style="endArrow=none;html=1;rounded=0;exitX=1.013;exitY=0.433;exitDx=0;exitDy=0;exitPerimeter=0;entryX=0;entryY=0.5;entryDx=0;entryDy=0;edgeStyle=orthogonalEdgeStyle;" edge="1" parent="1" source="usuario" target="rel4">
          <mxGeometry width="50" height="50" relative="1" as="geometry">
            <mxPoint x="280" y="100" as="sourcePoint" />
            <mxPoint x="330" y="50" as="targetPoint" />
          </mxGeometry>
        </mxCell>
        <mxCell id="tABnrPn6lWvIY6n4PG_O-12" value="" style="endArrow=none;html=1;rounded=0;exitX=1;exitY=0.5;exitDx=0;exitDy=0;entryX=-0.006;entryY=0.44;entryDx=0;entryDy=0;entryPerimeter=0;edgeStyle=orthogonalEdgeStyle;" edge="1" parent="1" source="rel4" target="notificacao">
          <mxGeometry width="50" height="50" relative="1" as="geometry">
            <mxPoint x="425" y="102" as="sourcePoint" />
            <mxPoint x="583" y="70" as="targetPoint" />
          </mxGeometry>
        </mxCell>
      </root>
    </mxGraphModel>
  </diagram>
</mxfile>
